<mxfile host="app.diagrams.net" modified="2023-11-21T09:49:11.907Z" agent="Mozilla/5.0 (X11; Linux x86_64) AppleWebKit/537.36 (KHTML, like Gecko) Chrome/119.0.0.0 Safari/537.36" etag="b1w-SqvuASNeE6EnNaNl" version="22.1.3" type="github">
  <diagram name="Page-1" id="BADNoVDXXL1PN1w5tZ0m">
    <mxGraphModel dx="1434" dy="798" grid="1" gridSize="8" guides="1" tooltips="1" connect="1" arrows="1" fold="1" page="1" pageScale="1" pageWidth="850" pageHeight="1100" math="0" shadow="0">
      <root>
        <mxCell id="0" />
        <mxCell id="1" parent="0" />
        <mxCell id="o4FgQ-1NwXLv7gHeXiup-1" value="Product Requirement Doc" style="rounded=0;whiteSpace=wrap;html=1;" vertex="1" parent="1">
          <mxGeometry x="60" y="20" width="120" height="60" as="geometry" />
        </mxCell>
        <mxCell id="o4FgQ-1NwXLv7gHeXiup-2" value="Feature / Abstract concepts" style="rounded=1;whiteSpace=wrap;html=1;" vertex="1" parent="1">
          <mxGeometry x="60" y="140" width="120" height="60" as="geometry" />
        </mxCell>
        <mxCell id="o4FgQ-1NwXLv7gHeXiup-3" value="Data Defination" style="rounded=1;whiteSpace=wrap;html=1;" vertex="1" parent="1">
          <mxGeometry x="60" y="280" width="120" height="60" as="geometry" />
        </mxCell>
        <mxCell id="o4FgQ-1NwXLv7gHeXiup-4" value="Objects" style="rounded=1;whiteSpace=wrap;html=1;" vertex="1" parent="1">
          <mxGeometry x="60" y="410" width="120" height="60" as="geometry" />
        </mxCell>
        <mxCell id="o4FgQ-1NwXLv7gHeXiup-5" value="DataBase" style="shape=cylinder3;whiteSpace=wrap;html=1;boundedLbl=1;backgroundOutline=1;size=15;" vertex="1" parent="1">
          <mxGeometry x="87" y="544" width="60" height="86" as="geometry" />
        </mxCell>
        <mxCell id="o4FgQ-1NwXLv7gHeXiup-6" value="" style="endArrow=classic;html=1;rounded=1;exitX=0.5;exitY=1;exitDx=0;exitDy=0;fillColor=#d5e8d4;strokeColor=#82b366;jumpSize=12;shape=flexArrow;" edge="1" parent="1" source="o4FgQ-1NwXLv7gHeXiup-1" target="o4FgQ-1NwXLv7gHeXiup-2">
          <mxGeometry width="50" height="50" relative="1" as="geometry">
            <mxPoint x="430" y="310" as="sourcePoint" />
            <mxPoint x="480" y="260" as="targetPoint" />
          </mxGeometry>
        </mxCell>
        <mxCell id="o4FgQ-1NwXLv7gHeXiup-8" value="" style="endArrow=classic;html=1;rounded=0;exitX=0.5;exitY=1;exitDx=0;exitDy=0;fillColor=#d5e8d4;strokeColor=#82b366;shape=flexArrow;" edge="1" parent="1" source="o4FgQ-1NwXLv7gHeXiup-2" target="o4FgQ-1NwXLv7gHeXiup-3">
          <mxGeometry width="50" height="50" relative="1" as="geometry">
            <mxPoint x="432" y="314" as="sourcePoint" />
            <mxPoint x="482" y="264" as="targetPoint" />
          </mxGeometry>
        </mxCell>
        <mxCell id="o4FgQ-1NwXLv7gHeXiup-9" value="" style="endArrow=classic;html=1;rounded=0;exitX=0.5;exitY=1;exitDx=0;exitDy=0;fillColor=#d5e8d4;strokeColor=#82b366;shape=flexArrow;" edge="1" parent="1" source="o4FgQ-1NwXLv7gHeXiup-3">
          <mxGeometry width="50" height="50" relative="1" as="geometry">
            <mxPoint x="432" y="314" as="sourcePoint" />
            <mxPoint x="120" y="408" as="targetPoint" />
          </mxGeometry>
        </mxCell>
        <mxCell id="o4FgQ-1NwXLv7gHeXiup-10" value="" style="endArrow=classic;html=1;rounded=0;exitX=0.5;exitY=1;exitDx=0;exitDy=0;shape=flexArrow;fillColor=#d5e8d4;strokeColor=#82b366;entryX=0.5;entryY=0;entryDx=0;entryDy=0;entryPerimeter=0;" edge="1" parent="1" target="o4FgQ-1NwXLv7gHeXiup-5">
          <mxGeometry width="50" height="50" relative="1" as="geometry">
            <mxPoint x="116.01" y="470" as="sourcePoint" />
            <mxPoint x="116" y="542" as="targetPoint" />
          </mxGeometry>
        </mxCell>
      </root>
    </mxGraphModel>
  </diagram>
</mxfile>
